<?xml version="1.0" encoding="utf-8"?><!DOCTYPE svg PUBLIC "-//W3C//DTD SVG 1.1//EN" "http://www.w3.org/Graphics/SVG/1.1/DTD/svg11.dtd"><svg viewBox="0 0 512 512" xmlns="http://www.w3.org/2000/svg" xmlns:xlink="http://www.w3.org/1999/xlink"><style>:root>svg{display:none}:root>svg:target{display:block}</style><svg viewBox="0 0 24 24" id="add-basket" xmlns="http://www.w3.org/2000/svg"><path d="M10.975 8L11 7.5c0-.517-.067-1.018-.181-1.5h5.993l-.564 2h-5.273zM8.5 18a1.5 1.5 0 10.001 3.001A1.5 1.5 0 008.5 18zM19.805 3l-3.432 12H5.945l-.455-1.083A6.59 6.59 0 014.5 14a6.49 6.49 0 01-1.191-.114L4.615 17h13.239l3.474-12h1.929L24 3h-4.195zM13.5 18a1.5 1.5 0 100 3 1.5 1.5 0 000-3zM9 7.5A4.501 4.501 0 114.5 3C6.982 3 9 5.015 9 7.5zM7 7H5V5H4v2H2v1h2v2h1V8h2V7z"/></svg><svg fill-rule="evenodd" clip-rule="evenodd" viewBox="0 0 24 24" id="arrow" xmlns="http://www.w3.org/2000/svg"><path d="M4 .755L18.374 12 4 23.219l.619.781L20 12 4.609 0 4 .755z"/></svg><svg fill-rule="evenodd" clip-rule="evenodd" viewBox="0 0 24 24" id="arrow-next" xmlns="http://www.w3.org/2000/svg"><path d="M12 0c6.623 0 12 5.377 12 12s-5.377 12-12 12S0 18.623 0 12 5.377 0 12 0zm0 1c6.071 0 11 4.929 11 11s-4.929 11-11 11S1 18.071 1 12 5.929 1 12 1zM9 6.753L15.44 12 9 17.263l.678.737L17 12 9.665 6 9 6.753z"/></svg><svg fill-rule="evenodd" clip-rule="evenodd" viewBox="0 0 24 24" id="arrow-prev" xmlns="http://www.w3.org/2000/svg"><path d="M12 0c6.623 0 12 5.377 12 12s-5.377 12-12 12S0 18.623 0 12 5.377 0 12 0zm0 1c6.071 0 11 4.929 11 11s-4.929 11-11 11S1 18.071 1 12 5.929 1 12 1zm3 5.753L8.56 12 15 17.263l-.678.737L7 12l7.335-6 .665.753z"/></svg><svg viewBox="0 0 511.997 511.997" id="basket" xmlns="http://www.w3.org/2000/svg"><path d="M405.387 362.612c-35.202 0-63.84 28.639-63.84 63.84s28.639 63.84 63.84 63.84 63.84-28.639 63.84-63.84-28.639-63.84-63.84-63.84zm0 89.376c-14.083 0-25.536-11.453-25.536-25.536s11.453-25.536 25.536-25.536c14.083 0 25.536 11.453 25.536 25.536s-11.453 25.536-25.536 25.536zM507.927 115.875a19.128 19.128 0 00-15.079-7.348H118.22l-17.237-72.12a19.16 19.16 0 00-18.629-14.702H19.152C8.574 21.704 0 30.278 0 40.856s8.574 19.152 19.152 19.152h48.085l62.244 260.443a19.153 19.153 0 0018.629 14.702h298.135c8.804 0 16.477-6.001 18.59-14.543l46.604-188.329a19.185 19.185 0 00-3.512-16.406zM431.261 296.85H163.227l-35.853-150.019h341.003L431.261 296.85zM173.646 362.612c-35.202 0-63.84 28.639-63.84 63.84s28.639 63.84 63.84 63.84 63.84-28.639 63.84-63.84-28.639-63.84-63.84-63.84zm0 89.376c-14.083 0-25.536-11.453-25.536-25.536s11.453-25.536 25.536-25.536 25.536 11.453 25.536 25.536-11.453 25.536-25.536 25.536z"/></svg><svg viewBox="0 0 291.319 291.319" id="facebook" xmlns="http://www.w3.org/2000/svg"><path d="M145.659 0c80.45 0 145.66 65.219 145.66 145.66 0 80.45-65.21 145.659-145.66 145.659S0 226.109 0 145.66C0 65.219 65.21 0 145.659 0z"/><path d="M163.394 100.277h18.772v-27.73h-22.067v.1c-26.738.947-32.218 15.977-32.701 31.763h-.055v13.847h-18.207v27.156h18.207v72.793h27.439v-72.793h22.477l4.342-27.156h-26.81v-8.366c0-5.335 3.55-9.614 8.603-9.614z" fill="#fff"/></svg><svg viewBox="0 0 512.002 512.002" id="header-arrow" xmlns="http://www.w3.org/2000/svg"><path d="M388.425 241.951L151.609 5.79c-7.759-7.733-20.321-7.72-28.067.04-7.74 7.759-7.72 20.328.04 28.067l222.72 222.105-222.728 222.104c-7.759 7.74-7.779 20.301-.04 28.061a19.8 19.8 0 0014.057 5.835 19.79 19.79 0 0014.017-5.795l236.817-236.155c3.737-3.718 5.834-8.778 5.834-14.05s-2.103-10.326-5.834-14.051z"/></svg><svg viewBox="0 0 24 24" id="heart" xmlns="http://www.w3.org/2000/svg"><path d="M6.28 3c3.236.001 4.973 3.491 5.72 5.031.75-1.547 2.469-5.021 5.726-5.021C19.784 3.01 22 4.319 22 7.192c0 3.442-4.744 7.851-10 13-5.258-5.151-10-9.559-10-13C2 4.516 3.965 2.999 6.28 3zm.001-2C3.098 1 0 3.187 0 7.192 0 11.853 5.57 16.619 12 23c6.43-6.381 12-11.147 12-15.808 0-4.011-3.097-6.182-6.274-6.182-2.204 0-4.446 1.042-5.726 3.238C10.715 2.042 8.478 1 6.281 1z"/></svg><svg viewBox="0 0 512 512" id="instagram" xmlns="http://www.w3.org/2000/svg"><path d="M305 256c0 27.063-21.938 49-49 49s-49-21.938-49-49 21.938-49 49-49 49 21.938 49 49zm0 0"/><path d="M370.594 169.305a45.546 45.546 0 00-10.996-16.903 45.514 45.514 0 00-16.903-10.996c-5.18-2.011-12.96-4.406-27.293-5.058-15.504-.707-20.152-.86-59.402-.86-39.254 0-43.902.149-59.402.856-14.332.656-22.118 3.05-27.293 5.062a45.483 45.483 0 00-16.903 10.996 45.572 45.572 0 00-11 16.903c-2.011 5.18-4.406 12.965-5.058 27.297-.707 15.5-.86 20.148-.86 59.402 0 39.25.153 43.898.86 59.402.652 14.332 3.047 22.114 5.058 27.293a45.563 45.563 0 0010.996 16.903 45.514 45.514 0 0016.903 10.996c5.18 2.015 12.965 4.41 27.297 5.062 15.5.707 20.144.856 59.398.856 39.258 0 43.906-.149 59.402-.856 14.332-.652 22.118-3.047 27.297-5.062a48.68 48.68 0 0027.899-27.899c2.011-5.18 4.406-12.96 5.062-27.293.707-15.504.856-20.152.856-59.402 0-39.254-.149-43.902-.856-59.402-.652-14.332-3.047-22.118-5.062-27.297zM256 331.485c-41.691 0-75.488-33.794-75.488-75.485s33.797-75.484 75.488-75.484c41.688 0 75.484 33.793 75.484 75.484S297.688 331.484 256 331.484zm78.469-136.313c-9.742 0-17.64-7.899-17.64-17.64s7.898-17.641 17.64-17.641 17.64 7.898 17.64 17.64c-.004 9.742-7.898 17.64-17.64 17.64zm0 0"/><path d="M256 0C114.637 0 0 114.637 0 256s114.637 256 256 256 256-114.637 256-256S397.363 0 256 0zm146.113 316.605c-.71 15.649-3.199 26.333-6.832 35.684a75.164 75.164 0 01-42.992 42.992c-9.348 3.633-20.035 6.117-35.68 6.832-15.675.715-20.683.887-60.605.887-39.926 0-44.93-.172-60.61-.887-15.644-.715-26.331-3.199-35.68-6.832a72.018 72.018 0 01-26.038-16.957 72.044 72.044 0 01-16.953-26.035c-3.633-9.348-6.121-20.035-6.832-35.68-.723-15.68-.891-20.687-.891-60.609s.168-44.93.887-60.605c.71-15.649 3.195-26.332 6.828-35.684a72.013 72.013 0 0116.96-26.035 72.003 72.003 0 0126.036-16.957c9.352-3.633 20.035-6.117 35.684-6.832C211.07 109.172 216.078 109 256 109s44.93.172 60.605.89c15.649.712 26.332 3.196 35.684 6.825a72.061 72.061 0 0126.04 16.96 72.027 72.027 0 0116.952 26.036c3.637 9.352 6.121 20.035 6.836 35.684.715 15.675.883 20.683.883 60.605s-.168 44.93-.887 60.605zm0 0"/></svg><svg viewBox="0 0 511.999 511.999" id="location" xmlns="http://www.w3.org/2000/svg"><path d="M409.124 63.426C368.224 22.525 313.843 0 256.001 0S143.777 22.525 102.877 63.426c-40.901 40.902-63.426 95.282-63.426 153.123 0 117.012 110.638 214.337 170.077 266.623 8.26 7.266 15.393 13.541 21.076 18.849 7.12 6.651 16.259 9.977 25.396 9.977 9.139 0 18.276-3.326 25.397-9.977 5.683-5.309 12.816-11.583 21.076-18.849 59.439-52.287 170.077-149.611 170.077-266.623-.001-57.841-22.525-112.221-63.426-153.123zM282.663 460.654c-8.441 7.425-15.73 13.838-21.74 19.451-2.761 2.577-7.085 2.578-9.847 0-6.009-5.615-13.299-12.027-21.74-19.452-55.88-49.155-159.895-140.654-159.895-244.103 0-102.868 83.689-186.557 186.558-186.557 102.868 0 186.557 83.689 186.557 186.557.001 103.449-104.013 194.948-159.893 244.104z"/><path d="M256.001 112.938c-52.621 0-95.431 42.809-95.431 95.43s42.81 95.43 95.431 95.43 95.43-42.809 95.43-95.43-42.809-95.43-95.43-95.43zm0 160.867c-36.083 0-65.439-29.356-65.439-65.438s29.356-65.438 65.439-65.438 65.438 29.356 65.438 65.438-29.355 65.438-65.438 65.438z"/></svg><svg viewBox="0 0 24 24" id="paper-plane" xmlns="http://www.w3.org/2000/svg"><path d="M8.75 17.612v4.638a.751.751 0 001.354.444l2.713-3.692zM23.685.139a.75.75 0 00-.782-.054l-22.5 11.75a.752.752 0 00.104 1.375l6.255 2.138 13.321-11.39L9.775 16.377l10.483 3.583a.753.753 0 00.984-.599l2.75-18.5a.751.751 0 00-.307-.722z"/></svg><svg viewBox="0 0 482.6 482.6" id="phone" xmlns="http://www.w3.org/2000/svg"><path d="M98.339 320.8c47.6 56.9 104.9 101.7 170.3 133.4 24.9 11.8 58.2 25.8 95.3 28.2 2.3.1 4.5.2 6.8.2 24.9 0 44.9-8.6 61.2-26.3.1-.1.3-.3.4-.5 5.8-7 12.4-13.3 19.3-20 4.7-4.5 9.5-9.2 14.1-14 21.3-22.2 21.3-50.4-.2-71.9l-60.1-60.1c-10.2-10.6-22.4-16.2-35.2-16.2-12.8 0-25.1 5.6-35.6 16.1l-35.8 35.8c-3.3-1.9-6.7-3.6-9.9-5.2-4-2-7.7-3.9-11-6-32.6-20.7-62.2-47.7-90.5-82.4-14.3-18.1-23.9-33.3-30.6-48.8 9.4-8.5 18.2-17.4 26.7-26.1 3-3.1 6.1-6.2 9.2-9.3 10.8-10.8 16.6-23.3 16.6-36s-5.7-25.2-16.6-36l-29.8-29.8c-3.5-3.5-6.8-6.9-10.2-10.4-6.6-6.8-13.5-13.8-20.3-20.1-10.3-10.1-22.4-15.4-35.2-15.4-12.7 0-24.9 5.3-35.6 15.5l-37.4 37.4c-13.6 13.6-21.3 30.1-22.9 49.2-1.9 23.9 2.5 49.3 13.9 80 17.5 47.5 43.9 91.6 83.1 138.7zm-72.6-216.6c1.2-13.3 6.3-24.4 15.9-34l37.2-37.2c5.8-5.6 12.2-8.5 18.4-8.5 6.1 0 12.3 2.9 18 8.7 6.7 6.2 13 12.7 19.8 19.6 3.4 3.5 6.9 7 10.4 10.6l29.8 29.8c6.2 6.2 9.4 12.5 9.4 18.7s-3.2 12.5-9.4 18.7c-3.1 3.1-6.2 6.3-9.3 9.4-9.3 9.4-18 18.3-27.6 26.8l-.5.5c-8.3 8.3-7 16.2-5 22.2.1.3.2.5.3.8 7.7 18.5 18.4 36.1 35.1 57.1 30 37 61.6 65.7 96.4 87.8 4.3 2.8 8.9 5 13.2 7.2 4 2 7.7 3.9 11 6 .4.2.7.4 1.1.6 3.3 1.7 6.5 2.5 9.7 2.5 8 0 13.2-5.1 14.9-6.8l37.4-37.4c5.8-5.8 12.1-8.9 18.3-8.9 7.6 0 13.8 4.7 17.7 8.9l60.3 60.2c12 12 11.9 25-.3 37.7-4.2 4.5-8.6 8.8-13.3 13.3-7 6.8-14.3 13.8-20.9 21.7-11.5 12.4-25.2 18.2-42.9 18.2-1.7 0-3.5-.1-5.2-.2-32.8-2.1-63.3-14.9-86.2-25.8-62.2-30.1-116.8-72.8-162.1-127-37.3-44.9-62.4-86.7-79-131.5-10.3-27.5-14.2-49.6-12.6-69.7z"/></svg><svg viewBox="0 0 112.198 112.198" id="pinterest" xmlns="http://www.w3.org/2000/svg"><circle cx="56.099" cy="56.1" r="56.098"/><path d="M60.627 75.122c-4.241-.328-6.023-2.431-9.349-4.45-1.828 9.591-4.062 18.785-10.679 23.588-2.045-14.496 2.998-25.384 5.34-36.941-3.992-6.72.48-20.246 8.9-16.913 10.363 4.098-8.972 24.987 4.008 27.596 13.551 2.724 19.083-23.513 10.679-32.047-12.142-12.321-35.343-.28-32.49 17.358.695 4.312 5.151 5.621 1.78 11.571-7.771-1.721-10.089-7.85-9.791-16.021.481-13.375 12.018-22.74 23.59-24.036 14.635-1.638 28.371 5.374 30.267 19.14 2.133 15.537-6.607 32.363-22.255 31.155z" fill="#f1f2f2"/></svg><svg viewBox="0 0 512 512" id="search" xmlns="http://www.w3.org/2000/svg"><path d="M225.474 0C101.151 0 0 101.151 0 225.474c0 124.33 101.151 225.474 225.474 225.474 124.33 0 225.474-101.144 225.474-225.474C450.948 101.151 349.804 0 225.474 0zm0 409.323c-101.373 0-183.848-82.475-183.848-183.848S124.101 41.626 225.474 41.626s183.848 82.475 183.848 183.848-82.475 183.849-183.848 183.849z"/><path d="M505.902 476.472L386.574 357.144c-8.131-8.131-21.299-8.131-29.43 0-8.131 8.124-8.131 21.306 0 29.43l119.328 119.328A20.74 20.74 0 00491.187 512a20.754 20.754 0 0014.715-6.098c8.131-8.124 8.131-21.306 0-29.43z"/></svg><svg viewBox="0 0 24 24" id="share" xmlns="http://www.w3.org/2000/svg"><path d="M5 9c1.654 0 3 1.346 3 3s-1.346 3-3 3-3-1.346-3-3 1.346-3 3-3zm0-2a5 5 0 100 10A5 5 0 005 7zm15 9a3.974 3.974 0 00-2.935 1.301l-5.488-2.927a6.945 6.945 0 01-.944 1.764l5.488 2.927A3.998 3.998 0 0016 20a4 4 0 104-4zm0 6c-1.103 0-2-.897-2-2s.897-2 2-2 2 .897 2 2-.897 2-2 2zm0-22a4 4 0 00-4 4c0 .324.049.634.121.935l-5.488 2.927c.395.536.713 1.128.944 1.764l5.488-2.927A3.974 3.974 0 0020 8a4 4 0 000-8zm0 6c-1.103 0-2-.897-2-2s.897-2 2-2 2 .897 2 2-.897 2-2 2z"/></svg><svg viewBox="0 0 512 512" id="twitter" xmlns="http://www.w3.org/2000/svg"><path d="M256 0C114.637 0 0 114.637 0 256s114.637 256 256 256 256-114.637 256-256S397.363 0 256 0zm116.887 199.602c.113 2.52.168 5.05.168 7.593 0 77.645-59.102 167.18-167.184 167.184h.004-.004c-33.184 0-64.062-9.727-90.066-26.395 4.597.543 9.277.813 14.015.813 27.532 0 52.868-9.39 72.98-25.152-25.722-.477-47.41-17.465-54.894-40.813a58.481 58.481 0 0011.043 1.063c5.363 0 10.559-.723 15.496-2.07-26.886-5.384-47.14-29.145-47.14-57.598 0-.266 0-.504.007-.75a58.354 58.354 0 0026.614 7.347c-15.778-10.527-26.149-28.523-26.149-48.91a58.597 58.597 0 017.957-29.535c28.977 35.555 72.282 58.937 121.118 61.394a58.708 58.708 0 01-1.528-13.398c0-32.437 26.317-58.754 58.766-58.754 16.902 0 32.168 7.145 42.89 18.567a117.855 117.855 0 0037.313-14.262c-4.395 13.715-13.707 25.222-25.84 32.5 11.887-1.422 23.215-4.574 33.742-9.254a119.412 119.412 0 01-29.308 30.43zm0 0"/></svg><svg viewBox="0 0 512 512" id="user" xmlns="http://www.w3.org/2000/svg"><path d="M333.187 237.405c32.761-23.893 54.095-62.561 54.095-106.123C387.282 58.893 328.389 0 256 0S124.718 58.893 124.718 131.282c0 43.562 21.333 82.23 54.095 106.123-81.44 31.165-139.428 110.126-139.428 202.39 0 39.814 32.391 72.205 72.205 72.205h288.82c39.814 0 72.205-32.391 72.205-72.205 0-92.264-57.988-171.225-139.428-202.39zM164.103 131.282c0-50.672 41.225-91.897 91.897-91.897s91.897 41.225 91.897 91.897S306.672 223.18 256 223.18s-91.897-41.226-91.897-91.898zM400.41 472.615H111.59c-18.097 0-32.82-14.723-32.82-32.821 0-97.726 79.504-177.231 177.231-177.231s177.231 79.504 177.231 177.231c-.001 18.098-14.724 32.821-32.822 32.821z"/></svg><svg viewBox="0 0 477.73 477.73" id="website" xmlns="http://www.w3.org/2000/svg"><path d="M433.562 100.983a3.987 3.987 0 00-.051-.461c-.597-.853-1.331-1.587-1.946-2.423A244.794 244.794 0 00417.4 80.554a262.531 262.531 0 00-4.13-4.557 236.39 236.39 0 00-16.145-15.718c-1.041-.922-2.014-1.877-3.055-2.782a239.198 239.198 0 00-45.295-30.583c-.649-.341-1.331-.631-1.997-.973a237.347 237.347 0 00-22.187-9.882c-1.707-.614-3.26-1.195-4.881-1.707a241.293 241.293 0 00-20.48-6.366c-2.048-.546-4.096-1.109-6.178-1.587-6.827-1.587-13.653-2.799-20.634-3.789-2.116-.307-4.198-.717-6.332-.973a224.367 224.367 0 00-54.136 0c-2.133.256-4.215.666-6.332.973-6.98.99-13.875 2.202-20.634 3.789-2.082.478-4.13 1.041-6.178 1.587a230.801 230.801 0 00-20.48 6.366c-1.707.58-3.26 1.161-4.881 1.707a237.202 237.202 0 00-22.187 9.882c-.666.341-1.348.631-1.997.973a239.258 239.258 0 00-45.449 30.583c-1.041.904-2.014 1.86-3.055 2.782a221.975 221.975 0 00-16.145 15.718 262.531 262.531 0 00-4.13 4.557 233.62 233.62 0 00-14.165 17.544c-.614.836-1.348 1.57-1.946 2.423a3.873 3.873 0 00-.205.461c-58.866 82.497-58.866 193.267 0 275.763.058.158.126.312.205.461.597.853 1.331 1.587 1.946 2.423a238.636 238.636 0 0014.165 17.545 262.531 262.531 0 004.13 4.557 241.8 241.8 0 0016.145 15.718c1.041.922 2.014 1.877 3.055 2.782a239.198 239.198 0 0045.295 30.583c.649.341 1.331.631 1.997.973a237.347 237.347 0 0022.187 9.882c1.707.614 3.26 1.195 4.881 1.707a241.293 241.293 0 0020.48 6.366c2.048.546 4.096 1.109 6.178 1.587 6.827 1.587 13.653 2.799 20.634 3.789 2.116.307 4.198.717 6.332.973a224.367 224.367 0 0054.136 0c2.133-.256 4.215-.666 6.332-.973 6.98-.99 13.875-2.202 20.634-3.789 2.082-.478 4.13-1.041 6.178-1.587a228.456 228.456 0 0020.48-6.366c1.707-.58 3.26-1.161 4.881-1.707a237.202 237.202 0 0022.187-9.882c.666-.341 1.348-.631 1.997-.973a239.245 239.245 0 0045.295-30.583c1.041-.905 2.014-1.86 3.055-2.782a217.289 217.289 0 0016.145-15.718 262.531 262.531 0 004.13-4.557 238.375 238.375 0 0014.165-17.545c.614-.836 1.348-1.57 1.946-2.423.078-.149.147-.303.205-.461 58.866-82.495 58.866-193.265 0-275.762zm-19.473 32.291a203.074 203.074 0 0128.791 88.525H340.651a318.467 318.467 0 00-9.557-60.228 306.684 306.684 0 0082.995-28.297zM282.368 38.775c.956.222 1.877.529 2.833.751 6.11 1.434 12.169 3.072 18.091 5.12.905.307 1.792.666 2.68.99a229.53 229.53 0 0117.323 6.827c.99.461 1.963.973 2.953 1.434a220.423 220.423 0 0115.906 8.38l3.413 2.065a198.427 198.427 0 0114.336 9.643c1.195.87 2.389 1.707 3.567 2.662a155.714 155.714 0 0113.073 10.974c1.092.99 2.219 1.963 3.294 2.987 4.369 4.147 8.533 8.533 12.561 13.073.512.597 1.058 1.143 1.57 1.707a286.275 286.275 0 01-72.789 23.381 433.96 433.96 0 00-45.943-91.17c2.37.426 4.794.665 7.132 1.176zm-111.07 183.023a284.761 284.761 0 019.387-54.613 489.047 489.047 0 0058.266 3.413 490.158 490.158 0 0058.317-3.499 284.239 284.239 0 019.335 54.699H171.298zm135.305 34.134a284.761 284.761 0 01-9.387 54.613 489.047 489.047 0 00-58.266-3.413 490.32 490.32 0 00-58.317 3.413 284.313 284.313 0 01-9.336-54.613h135.306zM238.95 45.193a412.205 412.205 0 0147.565 88.747 451.706 451.706 0 01-47.565 2.526 455.121 455.121 0 01-47.514-2.543 415.453 415.453 0 0147.514-88.73zm-153.429 58.47c4.011-4.54 8.192-8.926 12.561-13.073 1.075-1.024 2.202-1.997 3.294-2.987a211.532 211.532 0 0113.073-10.974c1.178-.905 2.372-1.707 3.567-2.662a206.266 206.266 0 0114.336-9.643l3.413-2.065a203.843 203.843 0 0115.906-8.38c.99-.461 1.963-.973 2.953-1.434a193.056 193.056 0 0117.323-6.827c.887-.324 1.707-.683 2.679-.99 5.922-1.98 11.947-3.618 18.091-5.12.956-.222 1.877-.529 2.85-.734 2.338-.512 4.762-.751 7.134-1.178a433.99 433.99 0 00-45.961 91.187 286.262 286.262 0 01-72.789-23.381c.512-.596 1.058-1.142 1.57-1.739zm-21.709 29.611a306.63 306.63 0 0082.978 28.297 318.465 318.465 0 00-9.54 60.228H35.021a203.1 203.1 0 0128.791-88.525zm0 211.183a203.074 203.074 0 01-28.791-88.525H137.25a318.467 318.467 0 009.557 60.228 306.616 306.616 0 00-82.995 28.297zm131.721 94.498c-.956-.222-1.877-.529-2.833-.751-6.11-1.434-12.169-3.072-18.091-5.12-.905-.307-1.792-.666-2.68-.99a229.53 229.53 0 01-17.323-6.827c-.99-.461-1.963-.973-2.953-1.434a220.423 220.423 0 01-15.906-8.38l-3.413-2.065a198.427 198.427 0 01-14.336-9.643c-1.195-.87-2.389-1.707-3.567-2.662a155.714 155.714 0 01-13.073-10.974c-1.092-.99-2.219-1.963-3.294-2.987-4.369-4.147-8.533-8.533-12.561-13.073-.512-.597-1.058-1.143-1.57-1.707a286.275 286.275 0 0172.789-23.381 433.96 433.96 0 0045.943 91.17c-2.371-.425-4.794-.664-7.132-1.176zm43.417-6.417a412.205 412.205 0 01-47.565-88.747 444.302 444.302 0 0195.095 0l-.017.017a415.363 415.363 0 01-47.513 88.73zm153.43-58.471c-4.011 4.54-8.192 8.926-12.561 13.073-1.075 1.024-2.202 1.997-3.294 2.987a203.398 203.398 0 01-13.073 10.974 176.488 176.488 0 01-3.567 2.662 206.266 206.266 0 01-14.336 9.643l-3.413 2.065a207.805 207.805 0 01-15.906 8.38c-.99.461-1.963.973-2.953 1.434a193.056 193.056 0 01-17.323 6.827c-.887.324-1.707.683-2.679.99-5.922 1.98-11.947 3.618-18.091 5.12-.956.222-1.877.529-2.85.734-2.338.512-4.762.751-7.134 1.178a433.912 433.912 0 0045.943-91.17 286.262 286.262 0 0172.789 23.381c-.494.579-1.04 1.125-1.552 1.722zm21.709-29.61a306.63 306.63 0 00-82.978-28.297 318.465 318.465 0 009.54-60.228H442.88a203.108 203.108 0 01-28.791 88.525z"/></svg></svg>